<svg width="191" height="95" viewBox="0 0 191 95" fill="none" xmlns="http://www.w3.org/2000/svg">
<path d="M67.48 46.6C65.4 46.6 63.4 46.3867 61.48 45.96C59.5867 45.5067 58.0533 44.88 56.88 44.08C56.48 43.7867 56.28 43.52 56.28 43.28C56.28 43.12 56.3467 42.9333 56.48 42.72L58.12 40.12C58.28 39.8533 58.4533 39.72 58.64 39.72C58.8 39.72 59 39.8 59.24 39.96C60.2267 40.52 61.36 40.9733 62.64 41.32C63.92 41.6667 65.2133 41.84 66.52 41.84C68.0667 41.84 69.2133 41.6 69.96 41.12C70.7067 40.6133 71.08 39.8267 71.08 38.76C71.08 38.04 70.8933 37.4533 70.52 37C70.1733 36.5467 69.64 36.1467 68.92 35.8C68.2267 35.4533 67.1467 35 65.68 34.44C63.9733 33.8 62.52 33.1467 61.32 32.48C60.1467 31.8133 59.1733 30.96 58.4 29.92C57.6533 28.8533 57.28 27.56 57.28 26.04C57.28 23.5067 58.2 21.5733 60.04 20.24C61.88 18.88 64.3067 18.2 67.32 18.2C71.2933 18.2 74.3333 18.9467 76.44 20.44C76.84 20.76 77.04 21.0267 77.04 21.24C77.04 21.4 76.9733 21.5867 76.84 21.8L75.2 24.4C75.04 24.6667 74.8667 24.8 74.68 24.8C74.52 24.8 74.32 24.72 74.08 24.56C72.4533 23.4933 70.48 22.96 68.16 22.96C65.28 22.96 63.84 24 63.84 26.08C63.84 26.7733 64 27.3467 64.32 27.8C64.6667 28.2267 65.1333 28.6 65.72 28.92C66.3067 29.2133 67.2267 29.6 68.48 30.08L69.6 30.52C71.5467 31.2933 73.08 32.0267 74.2 32.72C75.32 33.3867 76.1733 34.2133 76.76 35.2C77.3733 36.1867 77.68 37.4533 77.68 39C77.68 41.32 76.8 43.1733 75.04 44.56C73.3067 45.92 70.7867 46.6 67.48 46.6ZM82.7463 46C82.1063 46 81.6396 45.8667 81.3463 45.6C81.0796 45.3067 80.9463 44.8667 80.9463 44.28V20.56C80.9463 19.9733 81.0796 19.5333 81.3463 19.24C81.6396 18.9467 82.1063 18.8 82.7463 18.8H92.7463C99.5996 18.8 103.026 21.8667 103.026 28C103.026 34.1067 99.5996 37.16 92.7463 37.16H87.5463V44.28C87.5463 44.8667 87.4129 45.3067 87.1463 45.6C86.8796 45.8667 86.4129 46 85.7463 46H82.7463ZM92.3063 32.32C95.0796 32.32 96.4663 30.88 96.4663 28C96.4663 25.12 95.0796 23.68 92.3063 23.68H87.5863V32.32H92.3063ZM117.661 46.6C113.128 46.6 109.661 45.36 107.261 42.88C104.888 40.4 103.701 36.9067 103.701 32.4C103.701 27.8933 104.888 24.4 107.261 21.92C109.661 19.44 113.128 18.2 117.661 18.2C122.168 18.2 125.608 19.44 127.981 21.92C130.381 24.4 131.581 27.8933 131.581 32.4C131.581 36.9067 130.381 40.4 127.981 42.88C125.608 45.36 122.168 46.6 117.661 46.6ZM117.661 41.84C120.088 41.84 121.914 41.0533 123.141 39.48C124.394 37.88 125.021 35.52 125.021 32.4C125.021 29.28 124.394 26.9333 123.141 25.36C121.914 23.76 120.088 22.96 117.661 22.96C115.208 22.96 113.354 23.76 112.101 25.36C110.874 26.9333 110.261 29.28 110.261 32.4C110.261 35.52 110.874 37.88 112.101 39.48C113.354 41.0533 115.208 41.84 117.661 41.84ZM136.653 46C136.013 46 135.546 45.8667 135.253 45.6C134.986 45.3067 134.853 44.8667 134.853 44.28V20.56C134.853 19.9733 134.986 19.5333 135.253 19.24C135.546 18.9467 136.013 18.8 136.653 18.8H146.773C153.546 18.8 156.933 21.76 156.933 27.68C156.933 29.5733 156.533 31.1867 155.733 32.52C154.933 33.8267 153.746 34.8267 152.173 35.52L156.373 44.72C156.453 44.9067 156.493 45.0933 156.493 45.28C156.493 45.76 156.213 46 155.653 46H151.213C150.839 46 150.559 45.96 150.373 45.88C150.186 45.7733 150.026 45.56 149.893 45.24L146.213 36.44H141.453V44.28C141.453 44.8667 141.319 45.3067 141.053 45.6C140.786 45.8667 140.319 46 139.653 46H136.653ZM145.813 31.68C147.333 31.68 148.466 31.36 149.213 30.72C149.986 30.08 150.373 29.0667 150.373 27.68C150.373 26.2933 150.026 25.28 149.333 24.64C148.639 24 147.599 23.68 146.213 23.68H141.453V31.68H145.813ZM167.278 46C166.611 46 166.131 45.8667 165.838 45.6C165.571 45.3067 165.438 44.8667 165.438 44.28V23.68H158.878C158.238 23.68 157.798 23.56 157.558 23.32C157.318 23.0533 157.198 22.6133 157.198 22V20.52C157.198 19.9067 157.318 19.4667 157.558 19.2C157.798 18.9333 158.238 18.8 158.878 18.8H178.638C179.278 18.8 179.718 18.9333 179.958 19.2C180.224 19.4667 180.358 19.9067 180.358 20.52V22C180.358 22.5867 180.224 23.0133 179.958 23.28C179.718 23.5467 179.278 23.68 178.638 23.68H172.078V44.28C172.078 44.8667 171.931 45.3067 171.638 45.6C171.371 45.8667 170.904 46 170.238 46H167.278Z" fill="#111318"/>
<path d="M58.84 78C58.2 78 57.7333 77.8667 57.44 77.6C57.1733 77.3067 57.04 76.8667 57.04 76.28V52.56C57.04 51.9733 57.1733 51.5333 57.44 51.24C57.7333 50.9467 58.2 50.8 58.84 50.8H75.44C76.08 50.8 76.52 50.9333 76.76 51.2C77 51.44 77.12 51.8667 77.12 52.48V53.96C77.12 54.5733 77 55.0133 76.76 55.28C76.52 55.5467 76.08 55.68 75.44 55.68H63.64V61.96H71.88C72.52 61.96 72.96 62.0933 73.2 62.36C73.44 62.6 73.56 63.0267 73.56 63.64V65.12C73.56 65.7333 73.44 66.1733 73.2 66.44C72.96 66.7067 72.52 66.84 71.88 66.84H63.64V76.28C63.64 76.8667 63.5067 77.3067 63.24 77.6C62.9733 77.8667 62.5067 78 61.84 78H58.84ZM81.4181 78C80.7781 78 80.3115 77.8667 80.0181 77.6C79.7515 77.3067 79.6181 76.8667 79.6181 76.28V52.56C79.6181 51.9733 79.7515 51.5333 80.0181 51.24C80.3115 50.9467 80.7781 50.8 81.4181 50.8H84.4181C85.0848 50.8 85.5515 50.9467 85.8181 51.24C86.0848 51.5067 86.2181 51.9467 86.2181 52.56V76.28C86.2181 76.8667 86.0848 77.3067 85.8181 77.6C85.5515 77.8667 85.0848 78 84.4181 78H81.4181ZM92.0822 78C91.4422 78 90.9755 77.8667 90.6822 77.6C90.4155 77.3067 90.2822 76.8667 90.2822 76.28V52.52C90.2822 51.9333 90.4155 51.5067 90.6822 51.24C90.9755 50.9467 91.4555 50.8 92.1222 50.8H94.6022C95.0555 50.8 95.3889 50.8667 95.6022 51C95.8422 51.1067 96.0955 51.3333 96.3622 51.68L107.562 67.48V52.56C107.562 51.9733 107.696 51.5333 107.962 51.24C108.256 50.9467 108.722 50.8 109.362 50.8H112.362C113.029 50.8 113.496 50.9467 113.762 51.24C114.029 51.5067 114.162 51.9467 114.162 52.56V76.28C114.162 76.8667 114.029 77.3067 113.762 77.6C113.496 77.8667 113.029 78 112.362 78H109.842C109.416 78 109.082 77.9467 108.842 77.84C108.629 77.7067 108.389 77.4667 108.122 77.12L96.8822 61.36V76.28C96.8822 76.8667 96.7489 77.3067 96.4822 77.6C96.2155 77.8667 95.7489 78 95.0822 78H92.0822ZM120.051 78C119.411 78 118.944 77.8667 118.651 77.6C118.384 77.3067 118.251 76.8667 118.251 76.28V52.56C118.251 51.9733 118.384 51.5333 118.651 51.24C118.944 50.9467 119.411 50.8 120.051 50.8H128.451C133.011 50.8 136.478 51.8933 138.851 54.08C141.224 56.2667 142.411 59.7067 142.411 64.4C142.411 69.04 141.211 72.4667 138.811 74.68C136.411 76.8933 132.958 78 128.451 78H120.051ZM128.771 73.16C131.144 73.16 132.918 72.5067 134.091 71.2C135.264 69.8667 135.851 67.6 135.851 64.4C135.851 61.2 135.264 58.9467 134.091 57.64C132.918 56.3333 131.144 55.68 128.771 55.68H124.851V73.16H128.771ZM147.473 78C146.833 78 146.366 77.8667 146.073 77.6C145.806 77.3067 145.673 76.8667 145.673 76.28V52.56C145.673 51.9733 145.806 51.5333 146.073 51.24C146.366 50.9467 146.833 50.8 147.473 50.8H164.073C164.713 50.8 165.153 50.9333 165.393 51.2C165.633 51.44 165.753 51.8667 165.753 52.48V53.96C165.753 54.5733 165.633 55.0133 165.393 55.28C165.153 55.5467 164.713 55.68 164.073 55.68H152.273V62H160.513C161.153 62 161.593 62.1333 161.833 62.4C162.073 62.64 162.193 63.0667 162.193 63.68V65.08C162.193 65.6933 162.073 66.1333 161.833 66.4C161.593 66.6667 161.153 66.8 160.513 66.8H152.273V73.16H164.033C164.673 73.16 165.113 73.2933 165.353 73.56C165.593 73.8267 165.713 74.2667 165.713 74.88V76.32C165.713 76.9333 165.593 77.3733 165.353 77.64C165.113 77.88 164.673 78 164.033 78H147.473ZM170.442 78C169.802 78 169.335 77.8667 169.042 77.6C168.775 77.3067 168.642 76.8667 168.642 76.28V52.56C168.642 51.9733 168.775 51.5333 169.042 51.24C169.335 50.9467 169.802 50.8 170.442 50.8H180.562C187.335 50.8 190.722 53.76 190.722 59.68C190.722 61.5733 190.322 63.1867 189.522 64.52C188.722 65.8267 187.535 66.8267 185.962 67.52L190.162 76.72C190.242 76.9067 190.282 77.0933 190.282 77.28C190.282 77.76 190.002 78 189.442 78H185.002C184.628 78 184.348 77.96 184.162 77.88C183.975 77.7733 183.815 77.56 183.682 77.24L180.002 68.44H175.242V76.28C175.242 76.8667 175.108 77.3067 174.842 77.6C174.575 77.8667 174.108 78 173.442 78H170.442ZM179.602 63.68C181.122 63.68 182.255 63.36 183.002 62.72C183.775 62.08 184.162 61.0667 184.162 59.68C184.162 58.2933 183.815 57.28 183.122 56.64C182.428 56 181.388 55.68 180.002 55.68H175.242V63.68H179.602Z" fill="#111318"/>
<g clip-path="url(#clip0_215_274)">
<path d="M15.7477 24.7638C12.679 25.9841 9.80396 27.8318 7.32114 30.3146C7.17661 30.4583 7.04224 30.6091 6.90161 30.7552C7.98442 33.7482 9.3438 36.663 10.9969 39.4529C14.168 35.0857 15.7532 29.9247 15.7477 24.7638Z" fill="#FF740F"/>
<path d="M49.8593 45.3958C42.2413 44.2075 34.1819 46.5434 28.3124 52.4122C27.3733 53.3513 26.5257 54.3489 25.7671 55.3903C31.5194 59.4372 37.9116 62.17 44.5335 63.5895C48.7452 58.3263 50.521 51.7591 49.8593 45.3958Z" fill="#FF740F"/>
<path d="M21.1297 72.688C28.7469 73.8747 36.807 71.5388 42.6766 65.67C42.9172 65.4294 43.1469 65.1825 43.375 64.9356C36.8563 63.4302 30.5727 60.6771 24.8914 56.6841C21.8125 61.5192 20.5563 67.1778 21.1297 72.688Z" fill="#FF740F"/>
<path d="M9.97423 40.7646C8.27736 37.9747 6.86486 35.0638 5.72814 32.0693C1.90392 36.6857 -0.00623471 42.3529 1.52874e-05 48.0193C3.0672 46.799 5.94298 44.9505 8.4258 42.4685C8.97423 41.9193 9.48673 41.3497 9.97423 40.7646Z" fill="#FF740F"/>
<path d="M10.8415 42.152C10.4235 42.6364 9.98994 43.1138 9.53057 43.5731C6.754 46.3489 3.51416 48.3747 0.0610352 49.6653C0.449316 55.495 2.86572 61.2138 7.32119 65.6692C7.34229 65.6911 7.36572 65.7114 7.3876 65.7333C9.02119 59.6138 11.7587 53.7302 15.6126 48.3989C13.8485 46.4106 12.2556 44.3231 10.8415 42.152Z" fill="#FF740F"/>
<path d="M23.6188 55.7701C21.5969 54.2583 19.6547 52.5927 17.8165 50.7544C17.4313 50.3693 17.068 49.9708 16.6969 49.5771C12.8891 54.9115 10.2141 60.8029 8.68286 66.9263C11.8875 69.6927 15.6235 71.5115 19.5313 72.3826C19.0375 66.6513 20.4008 60.7888 23.6188 55.7701Z" fill="#FF740F"/>
<path d="M17.6399 48.3013C18.0618 48.7537 18.4805 49.2083 18.9219 49.6497C20.6891 51.4169 22.5571 53.0193 24.5 54.4779C25.3071 53.3685 26.2086 52.3076 27.2086 51.3076C33.325 45.1912 41.6813 42.6849 49.6368 43.7802C48.8071 38.9013 46.5282 34.2216 42.7922 30.4365C35.2774 32.8669 28.2055 37.0521 22.2368 43.0201C20.5602 44.6966 19.0368 46.4662 17.6399 48.3013Z" fill="#FF740F"/>
<path d="M11.8835 40.8724C13.2687 43.0443 14.832 45.1349 16.5765 47.1239C17.9671 45.3177 19.4757 43.5724 21.132 41.9161C27.0648 35.9825 34.0546 31.7544 41.4937 29.2153C34.7062 23.2419 25.4601 21.5747 17.296 24.2114C17.4242 30.0763 15.6203 35.9724 11.8835 40.8724Z" fill="#FF740F"/>
</g>
<defs>
<clipPath id="clip0_215_274">
<rect width="50" height="50" fill="white" transform="translate(0 23)"/>
</clipPath>
</defs>
</svg>
